<svg xmlns="http://www.w3.org/2000/svg" width="47" height="36" viewBox="0 0 47 36"><g><g><g><g><g><path fill="#eb6320" d="M41.688 5.538c2.488 0 4.511 2.07 4.511 4.616v18.461c0 2.545-2.023 4.616-4.511 4.616h-9.185A12.83 12.83 0 0 1 24.543 36a12.83 12.83 0 0 1-7.959-2.77H4.512C2.024 33.23 0 31.16 0 28.616V10.154c0-2.545 2.024-4.616 4.512-4.616h2.707V2.77c0-.51.404-.923.902-.923h6.316c.499 0 .903.414.903.923v2.77h7.85v-2.77C23.19 1.242 24.404 0 25.897 0h7.219c1.492 0 2.707 1.242 2.707 2.77v2.768zm-16.693 0h9.023V2.77a.914.914 0 0 0-.902-.923h-7.219a.914.914 0 0 0-.902.923zm-15.972 0h4.512V3.692H9.023zm26.8 17.077c0-6.362-5.06-11.538-11.28-11.538-6.219 0-11.279 5.176-11.279 11.538 0 6.363 5.06 11.539 11.28 11.539 6.219 0 11.279-5.176 11.279-11.539zm8.572-12.461c0-1.527-1.215-2.77-2.707-2.77H4.512c-1.493 0-2.707 1.243-2.707 2.77 0 1.984 1.66 2.77 3.338 2.77.499 0 .903.412.903.922s-.404.923-.903.923c-.564 0-3.337-.04-3.338-.927v14.773c0 1.527 1.214 2.77 2.707 2.77h10.155a13.507 13.507 0 0 1-3.207-8.77c0-7.38 5.87-13.384 13.084-13.384 7.214 0 13.083 6.004 13.083 13.384 0 3.352-1.21 6.42-3.207 8.77h7.268c1.493 0 2.707-1.243 2.707-2.77z"/></g></g></g><g><g><g><path fill="#eb6320" d="M8.754 9.23h-.542a.914.914 0 0 0-.902.923c0 .377.223.702.541.845v17.616c0 .51.404.923.903.923a.913.913 0 0 0 .902-.923V10.153a.913.913 0 0 0-.902-.923z"/></g></g></g><g><g><g><path fill="#eb6320" d="M4.602 9.23a.915.915 0 0 0-.902.923c0 .51.405.924.902.924a.915.915 0 0 0 .903-.924.915.915 0 0 0-.903-.923z"/></g></g></g><g><g><g><path fill="#eb6320" d="M33.138 19.804c-.149-.476-.668-.751-1.133-.598a.94.94 0 0 0-.586 1.16c.813 2.617.125 5.533-1.771 7.475-2.782 2.849-7.429 2.84-10.21 0-1.332-1.362-2.113-3.273-2.113-5.222 0-3.538 2.64-6.688 6.042-7.282a7.04 7.04 0 0 1 3.802.402c.45.18.995-.066 1.169-.525a.93.93 0 0 0-.515-1.195c-2.975-1.182-6.416-.644-8.91 1.389a8.988 8.988 0 0 0-.75.685 9.397 9.397 0 0 0-2.643 6.526c.003 3.707 2.27 7.16 5.626 8.554 3.323 1.38 7.243.566 9.778-2.027 1.69-1.729 2.617-4.117 2.63-6.527a9.27 9.27 0 0 0-.416-2.815z"/></g></g></g><g><g><g><path fill="#eb6320" d="M42.594 12c0 1.527-1.214 2.769-2.707 2.769-1.493 0-2.707-1.243-2.707-2.77s1.214-2.769 2.707-2.769c1.493 0 2.707 1.242 2.707 2.77zm-1.805 0a.914.914 0 0 0-.902-.924.914.914 0 0 0-.902.923c0 .51.404.924.902.924a.914.914 0 0 0 .902-.924z"/></g></g></g><g><g><g><path fill="#eb6320" d="M30.502 17.816a.913.913 0 0 0 .903-.923.913.913 0 0 0-.903-.923.913.913 0 0 0-.902.923c0 .51.404.923.902.923z"/></g></g></g></g></g></svg>