<svg xmlns="http://www.w3.org/2000/svg" width="39" height="43" viewBox="0 0 39 43"><g><g><g><g><g><path fill="#eb6320" d="M39 16.368v13.47a.941.941 0 0 1-.47.812.983.983 0 0 1-.954.021l-6.248-3.29v2.82a.956.956 0 0 1-.966.945H18.963l5.237 9.83a.936.936 0 0 1-.41 1.276.979.979 0 0 1-1.303-.401l-5.117-9.605-5.117 9.605a.979.979 0 0 1-1.303.401.936.936 0 0 1-.41-1.275l5.237-9.831H4.378a.956.956 0 0 1-.966-.946v-4.292H.966A.956.956 0 0 1 0 24.963v-3.719c0-.522.433-.945.966-.945h2.446v-4.292c0-.522.433-.946.967-.946h.882a6.303 6.303 0 0 1-1.899-4.5c0-3.525 2.93-6.392 6.531-6.392 2.022 0 3.831.903 5.03 2.32C15.84 2.77 19.267 0 23.343 0c4.777 0 8.662 3.802 8.662 8.476 0 2.656-1.255 5.03-3.214 6.585h1.57c.534 0 .967.423.967.946v2.82l6.248-3.291c.3-.158.661-.15.953.02.292.171.471.48.471.812zM3.412 22.19h-1.48v1.827h1.48zM16.615 8.476c0 3.631 3.018 6.585 6.729 6.585 3.71 0 6.729-2.954 6.729-6.585s-3.019-6.585-6.73-6.585c-3.71 0-6.728 2.954-6.728 6.585zm-2.089 6.585h3.371a8.601 8.601 0 0 1-1.932-2.15 6.4 6.4 0 0 1-1.439 2.15zm-9.232-4.5c0 2.481 2.064 4.5 4.6 4.5 2.535 0 4.598-2.019 4.598-4.5 0-2.482-2.063-4.501-4.599-4.501-2.535 0-4.599 2.019-4.599 4.5zm24.102 6.391H5.345v12.303H29.396zm7.672.999l-5.74 3.023v4.258l5.74 3.023z"/></g></g></g><g><g><g><path fill="#eb6320" d="M12.83 10.562c0 1.584-1.317 2.872-2.935 2.872S6.96 12.146 6.96 10.562c0-1.584 1.317-2.872 2.935-2.872s2.935 1.288 2.935 2.872zm-1.74 0c0-.645-.536-1.17-1.195-1.17-.66 0-1.196.525-1.196 1.17 0 .645.537 1.17 1.196 1.17.66 0 1.196-.525 1.196-1.17z"/></g></g></g><g><g><g><path fill="#eb6320" d="M27.56 8.476c0 2.274-1.89 4.125-4.215 4.125-2.324 0-4.215-1.85-4.215-4.125s1.89-4.126 4.215-4.126c2.324 0 4.215 1.85 4.215 4.126zm-1.932 0c0-1.232-1.024-2.235-2.283-2.235s-2.283 1.003-2.283 2.235c0 1.231 1.024 2.234 2.283 2.234s2.283-1.003 2.283-2.234z"/></g></g></g><g><g><g><path fill="#eb6320" d="M20.223 19.7c.507 0 .918.402.918.898v5.007c0 .497-.41.899-.918.899H9.718a.908.908 0 0 1-.918-.899v-5.007c0-.496.41-.898.918-.898zm-.918 5.007v-3.21h-8.67v3.21z"/></g></g></g><g><g><g><path fill="#eb6320" d="M25.296 22.49a.956.956 0 0 0 .966-.945.956.956 0 0 0-.966-.945.956.956 0 0 0-.966.945c0 .522.433.946.966.946z"/></g></g></g><g><g><g><path fill="#eb6320" d="M25.296 25.6a.956.956 0 0 0 .966-.945.956.956 0 0 0-.966-.945.956.956 0 0 0-.966.945c0 .522.433.946.966.946z"/></g></g></g></g></g></svg>