<svg xmlns="http://www.w3.org/2000/svg" width="377" height="432" viewBox="0 0 377 432"><defs><clipPath id="1slka"><path fill="#fff" d="M240.394 120.57l68.18 43.06 68.178-43.06V43.06L308.573 0l-68.179 43.06z"/></clipPath><clipPath id="1slkb"><path fill="#fff" d="M0 174.37l68.18-43.06 68.178 43.06v77.509L68.179 294.94 0 251.879z"/></clipPath><clipPath id="1slkc"><path fill="#fff" d="M236.354 387.97l69.694 43.326 69.694-43.327v-77.987l-69.694-43.326-69.694 43.326z"/></clipPath><clipPath id="1slkd"><path fill="#fff" d="M158.58 251.877l68.179 43.06 68.178-43.06V174.37l-68.178-43.061-68.18 43.06z"/></clipPath><clipPath id="1slke"><path fill="#fff" d="M79.795 387.97l67.169 43.326 67.169-43.327v-77.987l-67.17-43.326-67.168 43.326z"/></clipPath></defs><g><g opacity=".15"><path fill="none" stroke="#f56a2b" stroke-miterlimit="50" stroke-width="4" d="M240.394 120.57v0l68.18 43.06v0l68.178-43.06v0-77.51 0L308.573 0v0l-68.179 43.06v0z" clip-path="url(&quot;#1slka&quot;)"/></g><g opacity=".15"><path fill="none" stroke="#f56a2b" stroke-miterlimit="50" stroke-width="4" d="M0 174.37v0l68.18-43.06v0l68.178 43.06v77.509L68.179 294.94v0L0 251.879v0z" clip-path="url(&quot;#1slkb&quot;)"/></g><g opacity=".15"><path fill="none" stroke="#f56a2b" stroke-miterlimit="50" stroke-width="4" d="M236.354 387.97v0l69.694 43.326v0l69.694-43.327v0-77.987 0l-69.694-43.326v0l-69.694 43.326v0z" clip-path="url(&quot;#1slkc&quot;)"/></g><g opacity=".15"><path fill="none" stroke="#f56a2b" stroke-miterlimit="50" stroke-width="4" d="M158.58 251.877v0l68.179 43.06v0l68.178-43.06v0-77.508 0l-68.178-43.061v0l-68.18 43.06v0z" clip-path="url(&quot;#1slkd&quot;)"/></g><g opacity=".15"><path fill="none" stroke="#f56a2b" stroke-miterlimit="50" stroke-width="4" d="M79.795 387.97v0l67.169 43.326v0l67.169-43.327v0-77.987 0l-67.17-43.326v0l-67.168 43.326v0z" clip-path="url(&quot;#1slke&quot;)"/></g></g></svg>