<svg xmlns="http://www.w3.org/2000/svg" width="377" height="295" viewBox="0 0 377 295"><defs><clipPath id="yj3oa"><path fill="#fff" d="M240.394 174.368l68.18-43.06 68.178 43.06v77.509l-68.179 43.06-68.179-43.06z"/></clipPath><clipPath id="yj3ob"><path fill="#fff" d="M0 120.57l68.18 43.06 68.178-43.06V43.06L68.179 0 0 43.06z"/></clipPath><clipPath id="yj3oc"><path fill="#fff" d="M158.58 43.06L226.758 0l68.178 43.06v77.509l-68.178 43.06-68.18-43.06z"/></clipPath></defs><g><g opacity=".15"><path fill="none" stroke="#f56a2b" stroke-miterlimit="50" stroke-width="4" d="M240.394 174.368v0l68.18-43.06v0l68.178 43.06v77.509l-68.179 43.06v0l-68.179-43.06v0z" clip-path="url(&quot;#yj3oa&quot;)"/></g><g opacity=".15"><path fill="none" stroke="#f56a2b" stroke-miterlimit="50" stroke-width="4" d="M0 120.57v0l68.18 43.06v0l68.178-43.06v0-77.51 0L68.179 0v0L0 43.06v0z" clip-path="url(&quot;#yj3ob&quot;)"/></g><g opacity=".15"><path fill="none" stroke="#f56a2b" stroke-miterlimit="50" stroke-width="4" d="M158.58 43.06v0L226.758 0v0l68.178 43.06v77.509l-68.178 43.06v0l-68.18-43.06v0z" clip-path="url(&quot;#yj3oc&quot;)"/></g></g></svg>