<svg xmlns="http://www.w3.org/2000/svg" width="378" height="432" viewBox="0 0 378 432"><defs><clipPath id="a02ja"><path fill="#fff" d="M241.19 120.57l68.178 43.06 68.18-43.06V43.06L309.367 0 241.19 43.06z"/></clipPath><clipPath id="a02jb"><path fill="#fff" d="M.79 174.37l68.18-43.06 68.178 43.06v77.509L68.969 294.94.79 251.879z"/></clipPath><clipPath id="a02jc"><path fill="#fff" d="M237.149 387.97l69.694 43.326 69.694-43.326v-77.987l-69.694-43.326-69.694 43.326z"/></clipPath><clipPath id="a02jd"><path fill="#fff" d="M159.374 251.877l68.18 43.06 68.178-43.06V174.37l-68.179-43.061-68.179 43.06z"/></clipPath><clipPath id="a02je"><path fill="#fff" d="M80.59 387.97l67.169 43.326 67.169-43.326v-77.987l-67.17-43.326-67.168 43.326z"/></clipPath></defs><g><g opacity=".15"><path fill="none" stroke="#f56a2b" stroke-miterlimit="50" stroke-width="4" d="M241.19 120.57v0l68.178 43.06v0l68.18-43.06v0-77.51 0L309.367 0v0L241.19 43.06v0z" clip-path="url(&quot;#a02ja&quot;)"/></g><g opacity=".15"><path fill="none" stroke="#f56a2b" stroke-miterlimit="50" stroke-width="4" d="M.79 174.37v0l68.18-43.06v0l68.178 43.06v77.509L68.969 294.94v0L.79 251.879v0z" clip-path="url(&quot;#a02jb&quot;)"/></g><g opacity=".15"><path fill="none" stroke="#f56a2b" stroke-miterlimit="50" stroke-width="4" d="M237.149 387.97v0l69.694 43.326v0l69.694-43.326v0-77.987 0l-69.694-43.326v0l-69.694 43.326v0z" clip-path="url(&quot;#a02jc&quot;)"/></g><g opacity=".15"><path fill="none" stroke="#f56a2b" stroke-miterlimit="50" stroke-width="4" d="M159.374 251.877v0l68.18 43.06v0l68.178-43.06v0-77.508 0l-68.179-43.061v0l-68.179 43.06v0z" clip-path="url(&quot;#a02jd&quot;)"/></g><g opacity=".15"><path fill="none" stroke="#f56a2b" stroke-miterlimit="50" stroke-width="4" d="M80.59 387.97v0l67.169 43.326v0l67.169-43.326v0-77.987 0l-67.17-43.326v0L80.59 309.983v0z" clip-path="url(&quot;#a02je&quot;)"/></g></g></svg>