<svg xmlns="http://www.w3.org/2000/svg" width="377" height="379" viewBox="0 0 377 379"><defs><clipPath id="a5fra"><path fill="#fff" d="M240.394 67.57l68.18 43.06 68.178-43.06V-9.94L308.573-53 240.394-9.94z"/></clipPath><clipPath id="a5frb"><path fill="#fff" d="M0 121.37l68.18-43.06 68.178 43.06v77.509L68.179 241.94 0 198.879z"/></clipPath><clipPath id="a5frc"><path fill="#fff" d="M236.354 334.97l69.694 43.326 69.694-43.327v-77.987l-69.694-43.326-69.694 43.326z"/></clipPath><clipPath id="a5frd"><path fill="#fff" d="M158.58 198.877l68.179 43.06 68.178-43.06V121.37L226.76 78.308l-68.18 43.06z"/></clipPath><clipPath id="a5fre"><path fill="#fff" d="M79.795 334.97l67.169 43.326 67.169-43.327v-77.987l-67.17-43.326-67.168 43.326z"/></clipPath></defs><g><g opacity=".15"><path fill="none" stroke="#f56a2b" stroke-miterlimit="50" stroke-width="4" d="M240.394 67.57v0l68.18 43.06v0l68.178-43.06v0-77.51 0L308.573-53v0L240.394-9.94v0z" clip-path="url(&quot;#a5fra&quot;)"/></g><g opacity=".15"><path fill="none" stroke="#f56a2b" stroke-miterlimit="50" stroke-width="4" d="M0 121.37v0l68.18-43.06v0l68.178 43.06v77.509L68.179 241.94v0L0 198.879v0z" clip-path="url(&quot;#a5frb&quot;)"/></g><g opacity=".15"><path fill="none" stroke="#f56a2b" stroke-miterlimit="50" stroke-width="4" d="M236.354 334.97v0l69.694 43.326v0l69.694-43.327v0-77.987 0l-69.694-43.326v0l-69.694 43.326v0z" clip-path="url(&quot;#a5frc&quot;)"/></g><g opacity=".15"><path fill="none" stroke="#f56a2b" stroke-miterlimit="50" stroke-width="4" d="M158.58 198.877v0l68.179 43.06v0l68.178-43.06v0-77.508 0L226.76 78.308v0l-68.18 43.06v0z" clip-path="url(&quot;#a5frd&quot;)"/></g><g opacity=".15"><path fill="none" stroke="#f56a2b" stroke-miterlimit="50" stroke-width="4" d="M79.795 334.97v0l67.169 43.326v0l67.169-43.327v0-77.987 0l-67.17-43.326v0l-67.168 43.326v0z" clip-path="url(&quot;#a5fre&quot;)"/></g></g></svg>