<svg xmlns="http://www.w3.org/2000/svg" width="43" height="43" viewBox="0 0 43 43"><g><g><path fill="#eb6320" d="M42.094 21.404a.713.713 0 0 1 .714.713v19.977a.713.713 0 0 1-.714.714H29.252a.714.714 0 0 1-.713-.714v-16.41H10.117l2.716 16.293a.714.714 0 0 1-.704.83H9.275a.713.713 0 0 1-.704-.595l-.376-2.258H4.647l-.376 2.258a.713.713 0 0 1-.704.596H.714a.713.713 0 0 1-.704-.83l2.715-16.293H.714A.713.713 0 0 1 0 24.97v-2.854a.714.714 0 0 1 .714-.713h.604l-.597-4.18a.713.713 0 0 1 .706-.814h.713v-2.14a2.14 2.14 0 1 1 4.281 0v2.14h.714a.713.713 0 0 1 .706.814l-.597 4.18h10.054l1.02-3.567h-6.903a2.143 2.143 0 0 1-2.14-2.14V2.14A2.143 2.143 0 0 1 11.415 0h19.977a2.143 2.143 0 0 1 2.14 2.14v13.556a2.143 2.143 0 0 1-2.14 2.14H24.49l1.02 3.568h9.45v-6.421a.713.713 0 0 1 .713-.714h.437l-1.114-3.341 1.354-.452 1.264 3.793h.2V9.99h1.427v4.28h.199l1.264-3.793 1.354.452-1.114 3.341h.437a.713.713 0 0 1 .713.714zM41.381 37.1v-2.854h-3.126l-.517 1.033a.714.714 0 0 1-.638.394h-2.854a.715.715 0 0 1-.638-.394l-.516-1.033h-3.126V37.1zm-11.415-7.135v2.854H41.38v-2.854h-3.126l-.517 1.033a.714.714 0 0 1-.638.395h-2.854a.713.713 0 0 1-.638-.395l-.516-1.033zm6.42-8.561h4.282v-5.708h-4.281zM11.417 1.427a.714.714 0 0 0-.714.713v11.416h21.404V2.14a.714.714 0 0 0-.713-.713zm-.714 14.27a.715.715 0 0 0 .714.713h19.977a.715.715 0 0 0 .713-.714v-.713H10.702zm8.08 5.707h5.244l-1.02-3.567h-3.204zM3.568 16.41h1.427v-2.14a.714.714 0 0 0-1.427 0zm-.808 4.994h3.044l.51-3.567H2.25zm-1.332 2.854h39.954V22.83H1.427zm4.152 1.427H4.172L1.556 41.38h1.407zm-.218 9.988h2.12l-1.06-6.362zm2.596 2.854L7.72 37.1H5.123l-.238 1.427zm.714-12.842H7.263L9.88 41.38h1.407zm21.295 0v2.854H41.38v-2.854h-3.126l-.517 1.032a.714.714 0 0 1-.638.395h-2.854a.714.714 0 0 1-.638-.395l-.516-1.032zM41.38 38.527h-3.126l-.517 1.033a.714.714 0 0 1-.638.394h-2.854a.714.714 0 0 1-.638-.394l-.516-1.033h-3.126v2.854H41.38z"/></g></g></svg>