<svg xmlns="http://www.w3.org/2000/svg" width="42" height="43" viewBox="0 0 42 43"><g><g><path fill="#eb6320" d="M41.677 11.114V40.65l-14.814 1.852-13.897-3.471L0 40.884v-29.54l13.046-1.866 7.91 1.974c-.588-1.448-.986-2.766-.986-3.696A6.954 6.954 0 0 1 26.917.81a6.954 6.954 0 0 1 6.946 6.946c0 1.1-.55 2.74-1.323 4.5zm-10.01 3.002c-1.502 3.033-3.309 5.992-3.882 6.913v6.582l12.156-1.519v-13.01zM13.904 37.474l12.145 3.033V29.273l-12.15-3.032zm7.803-29.718c0 .936.582 2.527 1.397 4.293l.143.304c1.184 2.52 2.76 5.24 3.67 6.76.842-1.404 2.252-3.834 3.393-6.18l.02-.04c1.019-2.095 1.796-4.054 1.796-5.137a5.215 5.215 0 0 0-5.21-5.21 5.216 5.216 0 0 0-5.209 5.21zm4.341 13.273c-.614-.987-2.647-4.316-4.199-7.564l-7.956-1.986.005 12.972 12.15 3.032zM1.738 12.851v13.006l10.425-1.492-.006-13.006zm0 26.03l10.43-1.491-.004-11.27L1.737 27.61zm38.204.235V27.842l-12.156 1.52v11.274z"/></g><g><path fill="#eb6320" d="M23.44 7.753a3.477 3.477 0 0 1 3.473-3.473 3.477 3.477 0 0 1 3.473 3.473 3.477 3.477 0 0 1-3.473 3.473 3.477 3.477 0 0 1-3.473-3.473zm1.737 0c0 .958.779 1.737 1.736 1.737s1.737-.78 1.737-1.737c0-.957-.78-1.736-1.737-1.736-.957 0-1.736.779-1.736 1.736z"/></g></g></svg>