<svg xmlns="http://www.w3.org/2000/svg" width="42" height="43" viewBox="0 0 42 43"><g><g><g><g><g><path fill="#eb6320" d="M41.691 21.264c0 11.505-9.49 20.927-20.927 20.927C9.204 42.191 0 32.655 0 21.264 0 9.787 9.288.5 20.764.5c11.38 0 20.927 9.19 20.927 20.764zm-2.426 0c0-10.102-8.309-18.337-18.5-18.337-10.103 0-18.338 8.235-18.338 18.337 0 10.192 8.235 18.5 18.337 18.5 10.192 0 18.5-8.308 18.5-18.5z"/></g></g></g><g><g><g><path fill="#eb6320" d="M22.659 21.267l4.022-4.022a1.221 1.221 0 0 0-1.728-1.727l-4.885 4.885a1.221 1.221 0 0 0 0 1.728l4.885 4.886a1.221 1.221 0 0 0 1.728-1.728z"/></g></g></g><g><g><g><path fill="#eb6320" d="M36.81 21.259c0 8.782-7.288 16.04-16.041 16.04-8.724 0-15.879-7.25-15.879-16.04 0-8.762 7.132-15.879 15.879-15.879 8.795 0 16.04 7.16 16.04 15.879zm-5.652 8.661c1.741-2.072 2.889-4.65 3.15-7.44h-1.162a1.221 1.221 0 0 1 0-2.443h1.164a13.291 13.291 0 0 0-3.079-7.351l-.8.8a1.217 1.217 0 0 1-.863.357c-1.078 0-1.635-1.313-.864-2.085l.793-.793a13.625 13.625 0 0 0-7.507-3.087v1.166a1.221 1.221 0 0 1-2.443 0V7.88a13.376 13.376 0 0 0-7.371 3.06l.82.82a1.221 1.221 0 1 1-1.728 1.726l-.82-.82a13.376 13.376 0 0 0-3.06 7.372h1.166a1.221 1.221 0 1 1 0 2.443H7.388a13.626 13.626 0 0 0 3.087 7.508l.793-.793a1.221 1.221 0 1 1 1.727 1.727l-.8.8a13.292 13.292 0 0 0 7.352 3.078v-1.165a1.221 1.221 0 0 1 2.443 0V34.8c2.79-.263 5.368-1.41 7.44-3.151l-.726-.726a1.221 1.221 0 1 1 1.728-1.728z"/></g></g></g></g></g></svg>