<svg xmlns="http://www.w3.org/2000/svg" width="42" height="37" viewBox="0 0 42 37"><g><g><g><g><g><path fill="#eb6320" d="M32.136 14.28H7.816a2.609 2.609 0 0 0-2.606 2.606v1.737c0 6.198 3.424 11.82 8.934 14.67a.87.87 0 0 0 .798-1.544 14.729 14.729 0 0 1-7.995-13.126v-1.737c0-.48.39-.869.869-.869h24.32c.48 0 .869.39.869.869v1.737a14.723 14.723 0 0 1-7.996 13.124.87.87 0 0 0 .797 1.544 16.455 16.455 0 0 0 8.936-14.668v-1.737a2.609 2.609 0 0 0-2.606-2.606z"/></g></g></g><g><g><g><path fill="#eb6320" d="M39.702 33.134l-1.947 1.949a6.054 6.054 0 0 1-4.303 1.78H6.502a6.044 6.044 0 0 1-4.3-1.78l-1.948-1.95A.87.87 0 0 1 .87 31.65h38.218a.87.87 0 0 1 .615 1.485zm-2.712.255H2.964l.466.465a4.318 4.318 0 0 0 3.071 1.272h26.953a4.318 4.318 0 0 0 3.07-1.272z"/></g></g></g><g><g><g><path fill="#eb6320" d="M40.016 18.381c-2.34-1.504-6.078.129-6.497.318a.87.87 0 0 0 .721 1.583c.837-.38 3.523-1.282 4.836-.436.593.38.883 1.118.883 2.25 0 3.479-7.015 5.58-9.723 6.098l-.615.122a.868.868 0 1 0 .335 1.702l.61-.12c.455-.086 11.13-2.18 11.13-7.801 0-1.748-.566-2.997-1.68-3.716z"/></g></g></g><g><g><g><path fill="#eb6320" d="M26.739 7.001c1.412-1.765 1.412-4.529 0-6.294a.866.866 0 0 0-1.221-.135.868.868 0 0 0-.136 1.22c.895 1.118.895 3.006-.001 4.127-1.415 1.765-1.415 4.529 0 6.293a.865.865 0 0 0 1.22.136.868.868 0 0 0 .136-1.221c-.896-1.117-.896-3.006.002-4.126z"/></g></g></g><g><g><g><path fill="#eb6320" d="M21.518 7c1.414-1.765 1.414-4.529 0-6.293a.868.868 0 1 0-1.357 1.086c.896 1.116.896 3.005-.002 4.125-1.412 1.765-1.412 4.529 0 6.294a.865.865 0 0 0 1.221.135.868.868 0 0 0 .136-1.22c-.895-1.118-.895-3.006.002-4.127z"/></g></g></g><g><g><g><path fill="#eb6320" d="M16.319 7.001c1.412-1.765 1.412-4.529 0-6.294a.869.869 0 0 0-1.357 1.084c.895 1.117.895 3.006-.001 4.126-1.415 1.765-1.415 4.529 0 6.294a.865.865 0 0 0 1.22.137.868.868 0 0 0 .136-1.221c-.896-1.119-.896-3.006.002-4.126z"/></g></g></g></g></g></svg>