<svg xmlns="http://www.w3.org/2000/svg" width="50" height="65" viewBox="0 0 50 65"><g><g><path fill="#eb6320" d="M48.206 58.694a2.971 2.971 0 0 1 1.45 2.554 2.98 2.98 0 1 1-5.959 0c0-1.085.585-2.023 1.451-2.545v-.375c-2.308-.91-9.064-3.208-18.79-3.434v3.809a2.966 2.966 0 0 1 1.45 2.545 2.98 2.98 0 0 1-5.958 0 2.97 2.97 0 0 1 1.45-2.545v-3.808c-9.763.222-16.494 2.52-18.79 3.433v.375a2.966 2.966 0 0 1 1.45 2.545 2.98 2.98 0 0 1-5.959 0 2.97 2.97 0 0 1 1.45-2.545v-1.39c0-.588.339-1.125.87-1.38.34-.163 8.166-3.816 20.979-4.094v-5.222a3.046 3.046 0 0 1-1.53-2.634v-1.69H10.927A3.06 3.06 0 0 1 8.1 40.408a3.034 3.034 0 0 1-.129-1.895c-2.698-.885-4.107-1.692-4.237-1.767a1.536 1.536 0 0 1-.755-1.321V27.06h-1.45a1.528 1.528 0 1 1 0-3.058h5.957a1.528 1.528 0 1 1 0 3.058h-1.45v7.417c.747.344 2.052.881 3.894 1.425l1.034-1.036a3.048 3.048 0 0 1 2.677-.854c.032.009 3.08.507 8.128.666v-2.671c-5.566-.346-8.398-1.55-8.746-1.707a3.055 3.055 0 0 1-1.782-3.092l2.344-23.285a3.055 3.055 0 0 1 1.855-2.513C15.783 1.267 18.96 0 24.827 0c5.868 0 9.046 1.267 9.39 1.411a3.06 3.06 0 0 1 1.854 2.513l2.344 23.28a3.058 3.058 0 0 1-1.78 3.092c-.35.158-3.182 1.36-8.748 1.706v2.671c5.048-.158 8.097-.66 8.13-.665a3.062 3.062 0 0 1 2.675.854l1.036 1.036c1.839-.544 3.144-1.081 3.893-1.425v-7.419h-1.452a1.528 1.528 0 0 1-1.527-1.529c0-.844.683-1.529 1.527-1.529h5.956a1.528 1.528 0 1 1 0 3.058h-1.45v8.363c0 .545-.288 1.046-.755 1.32-.124.075-1.526.873-4.195 1.754.059.236.093.482.093.738a3.059 3.059 0 0 1-3.058 3.058H27.885v1.687a3.042 3.042 0 0 1-1.529 2.635v5.222c12.811.28 20.64 3.934 20.98 4.097.531.254.87.79.87 1.38zM19.536 9.83a.764.764 0 0 0 .997.412c.015-.006 1.485-.598 4.293-.598s4.278.592 4.289.597a.77.77 0 0 0 1.004-.407.766.766 0 0 0-.408-1.002c-.07-.028-1.734-.717-4.884-.717-3.15 0-4.815.689-4.883.717a.765.765 0 0 0-.409.998zm-.762 4.643a.764.764 0 0 0 .998.411c.017-.008 1.749-.708 5.057-.708 3.308 0 5.037.701 5.054.707a.768.768 0 0 0 1.004-.407.767.767 0 0 0-.41-1.002c-.079-.033-1.996-.825-5.648-.825-3.653 0-5.57.792-5.65.825a.762.762 0 0 0-.405.999zm11.871 5.051a.77.77 0 0 0 1.003-.41.768.768 0 0 0-.408-.998c-.09-.039-2.26-.936-6.413-.936-4.152 0-6.323.897-6.412.936a.765.765 0 0 0-.409.998c.164.39.608.57 1 .41.02-.008 2.013-.815 5.821-.815 3.81 0 5.803.808 5.818.815z"/></g></g></svg>