<svg xmlns="http://www.w3.org/2000/svg" width="73" height="41" viewBox="0 0 73 41"><g><g><path fill="#eb6320" d="M15.102 15.823a7.552 7.552 0 1 0 0-15.103 7.552 7.552 0 0 0 0 15.103z"/></g><g><path fill="#eb6320" d="M15.107 20.865c1.11 0 2.067-1.15 2.39-2.675l-1.131.157H12.75c.356 1.448 1.286 2.518 2.357 2.518z"/></g><g><path fill="#eb6320" d="M45.31 3.022A2.304 2.304 0 0 0 43.01.72c-.606 0-1.199.245-1.628.673L30.216 12.56c-2.74 2.739-6.321 4.577-10.136 5.24-.29 3.128-2.396 5.575-4.977 5.575-2.415 0-4.434-2.137-4.92-4.976C4.473 18.974 0 23.809 0 29.669v11.327h3.776V25.892h2.517v15.104h17.62v-13.63c0-1.286.502-2.496 1.412-3.407L44.637 4.65a2.285 2.285 0 0 0 .673-1.627z"/></g><g><path fill="#eb6320" d="M65.7 18.34a7.321 7.321 0 0 0-7.048 5.382l-2.307 8.463H42.168a1.89 1.89 0 0 0-1.888 1.888 1.89 1.89 0 0 0 1.888 1.888h15.529a2.514 2.514 0 0 0 2.387-1.72l4.174-12.523 2.386.797-4.173 12.522a5.024 5.024 0 0 1-4.774 3.44h-1.055v2.518h16.362v-15.35c0-4.028-3.277-7.305-7.305-7.305z"/></g><g><path fill="#eb6320" d="M61.672 15.823a7.552 7.552 0 1 0 0-15.103 7.552 7.552 0 0 0 0 15.103z"/></g></g></svg>