<svg xmlns="http://www.w3.org/2000/svg" width="73" height="73" viewBox="0 0 73 73"><g><g><path fill="#eb6320" d="M53.346 72.82H19.654v-2.807a2.812 2.812 0 0 1 2.808-2.808h5.651a8.378 8.378 0 0 1 5.58-7.55v-32.92a5.264 5.264 0 0 1-2.471-4.456h10.557c0 1.881-.992 3.52-2.471 4.456v32.917a8.378 8.378 0 0 1 5.579 7.55h5.652a2.817 2.817 0 0 1 2.807 2.81zm5.616-18.104c-6.5 0-11.98-4.183-14.039-9.975h3.24l9.485-25.138c.41-1.095 2.215-1.095 2.627 0l9.485 25.138H73c-2.058 5.795-7.539 9.975-14.039 9.975zm7.796-9.975l-7.796-20.662-7.797 20.664h15.594zM11.203 13.856a2.835 2.835 0 0 1 2.836-2.836c.808 0 1.53.351 2.046.893.694-.29 1.44-.663 2.213-1.056 2.426-1.227 5.177-2.616 8.375-2.616 2.796 0 4.745 1.064 6.067 2.21a5.047 5.047 0 0 1 2.213-1.421C33.906 8.468 33.17 7.4 33.17 6.132 33.17 4.293 36.5 0 36.5 0s3.33 4.293 3.33 6.132c0 1.266-.736 2.336-1.783 2.898.862.278 1.62.766 2.213 1.42 1.322-1.145 3.27-2.21 6.067-2.21 3.198 0 5.947 1.39 8.373 2.617.772.39 1.521.764 2.215 1.056a2.813 2.813 0 0 1 2.047-.893 2.835 2.835 0 1 1 0 5.672c-1.272 0-2.308-.851-2.668-2.005-.93-.354-1.88-.831-2.86-1.325-2.146-1.084-4.58-2.314-7.107-2.314-2.429 0-3.945 1.126-4.81 2.078.034.241.073.48.073.73a5.091 5.091 0 0 1-10.18 0c0-.25.039-.491.073-.733-.868-.954-2.384-2.075-4.81-2.075-2.527 0-4.961 1.233-7.109 2.317-.977.494-1.929.971-2.858 1.325-.36 1.154-1.396 2.005-2.667 2.005a2.837 2.837 0 0 1-2.836-2.839zm2.836 40.863c-6.5 0-11.981-4.183-14.039-9.976h3.24l9.485-25.137c.41-1.095 2.215-1.095 2.627 0l9.485 25.137h3.24c-2.058 5.793-7.539 9.976-14.039 9.976zm7.796-9.978l-7.797-20.662-7.797 20.664h15.594z"/></g></g></svg>