<svg xmlns="http://www.w3.org/2000/svg" width="457" height="432" viewBox="0 0 457 432"><defs><clipPath id="a80qa"><path fill="#fff" d="M136.358 120.57L68.18 163.63 0 120.57V43.06L68.18 0l68.178 43.06z"/></clipPath><clipPath id="a80qb"><path fill="#fff" d="M376.753 174.368l-68.18-43.06-68.178 43.06v77.509l68.178 43.06 68.18-43.06z"/></clipPath><clipPath id="a80qc"><path fill="#fff" d="M456.547 309.982l-69.189-43.326-69.189 43.326v77.988l69.19 43.326 69.188-43.326z"/></clipPath><clipPath id="a80qd"><path fill="#fff" d="M140.398 387.97l-69.694 43.326L1.01 387.969v-77.987l69.694-43.326 69.694 43.326z"/></clipPath><clipPath id="a80qe"><path fill="#fff" d="M218.173 251.877l-68.18 43.06-68.178-43.06V174.37l68.179-43.061 68.18 43.06z"/></clipPath><clipPath id="a80qf"><path fill="#fff" d="M296.958 387.97l-67.17 43.326-67.168-43.327v-77.987l67.169-43.326 67.169 43.326z"/></clipPath></defs><g><g opacity=".15"><path fill="none" stroke="#f56a2b" stroke-miterlimit="50" stroke-width="4" d="M136.358 120.57v0L68.18 163.63v0L0 120.57v0-77.51 0L68.18 0v0l68.178 43.06v0z" clip-path="url(&quot;#a80qa&quot;)"/></g><g opacity=".15"><path fill="none" stroke="#f56a2b" stroke-miterlimit="50" stroke-width="4" d="M376.753 174.368v0l-68.18-43.06v0l-68.178 43.06v77.509l68.178 43.06v0l68.18-43.06v0z" clip-path="url(&quot;#a80qb&quot;)"/></g><g opacity=".15"><path fill="none" stroke="#f56a2b" stroke-miterlimit="50" stroke-width="4" d="M456.547 309.982v0l-69.189-43.326v0l-69.189 43.326v77.988l69.19 43.326v0l69.188-43.326v0z" clip-path="url(&quot;#a80qc&quot;)"/></g><g opacity=".15"><path fill="none" stroke="#f56a2b" stroke-miterlimit="50" stroke-width="4" d="M140.398 387.97v0l-69.694 43.326v0L1.01 387.969v0-77.987 0l69.694-43.326v0l69.694 43.326v0z" clip-path="url(&quot;#a80qd&quot;)"/></g><g opacity=".15"><path fill="none" stroke="#f56a2b" stroke-miterlimit="50" stroke-width="4" d="M218.173 251.877v0l-68.18 43.06v0l-68.178-43.06v0-77.508 0l68.179-43.061v0l68.18 43.06v0z" clip-path="url(&quot;#a80qe&quot;)"/></g><g opacity=".15"><path fill="none" stroke="#f56a2b" stroke-miterlimit="50" stroke-width="4" d="M296.958 387.97v0l-67.17 43.326v0l-67.168-43.327v0-77.987 0l67.169-43.326v0l67.169 43.326v0z" clip-path="url(&quot;#a80qf&quot;)"/></g></g></svg>