<svg xmlns="http://www.w3.org/2000/svg" width="457" height="432" viewBox="0 0 457 432"><defs><clipPath id="7524a"><path fill="#fff" d="M320.19 120.57l68.178 43.06 68.18-43.06V43.06L388.367 0 320.19 43.06z"/></clipPath><clipPath id="7524b"><path fill="#fff" d="M79.79 174.37l68.18-43.06 68.178 43.06v77.509l-68.179 43.061-68.179-43.061z"/></clipPath><clipPath id="7524c"><path fill="#fff" d="M0 309.986l69.19-43.326 69.188 43.326v77.988L69.189 431.3 0 387.974z"/></clipPath><clipPath id="7524d"><path fill="#fff" d="M316.149 387.97l69.694 43.326 69.694-43.327v-77.987l-69.694-43.326-69.694 43.326z"/></clipPath><clipPath id="7524e"><path fill="#fff" d="M238.374 251.877l68.18 43.06 68.178-43.06V174.37l-68.179-43.061-68.179 43.06z"/></clipPath><clipPath id="7524f"><path fill="#fff" d="M159.59 387.97l67.169 43.326 67.169-43.327v-77.987l-67.17-43.326-67.168 43.326z"/></clipPath></defs><g><g opacity=".15"><path fill="none" stroke="#f56a2b" stroke-miterlimit="50" stroke-width="4" d="M320.19 120.57v0l68.178 43.06v0l68.18-43.06v0-77.51 0L388.367 0v0L320.19 43.06v0z" clip-path="url(&quot;#7524a&quot;)"/></g><g opacity=".15"><path fill="none" stroke="#f56a2b" stroke-miterlimit="50" stroke-width="4" d="M79.79 174.37v0l68.18-43.06v0l68.178 43.06v77.509l-68.179 43.061v0L79.79 251.879v0z" clip-path="url(&quot;#7524b&quot;)"/></g><g opacity=".15"><path fill="none" stroke="#f56a2b" stroke-miterlimit="50" stroke-width="4" d="M0 309.986v0l69.19-43.326v0l69.188 43.326v77.988L69.189 431.3v0L0 387.974v0z" clip-path="url(&quot;#7524c&quot;)"/></g><g opacity=".15"><path fill="none" stroke="#f56a2b" stroke-miterlimit="50" stroke-width="4" d="M316.149 387.97v0l69.694 43.326v0l69.694-43.327v0-77.987 0l-69.694-43.326v0l-69.694 43.326v0z" clip-path="url(&quot;#7524d&quot;)"/></g><g opacity=".15"><path fill="none" stroke="#f56a2b" stroke-miterlimit="50" stroke-width="4" d="M238.374 251.877v0l68.18 43.06v0l68.178-43.06v0-77.508 0l-68.179-43.061v0l-68.179 43.06v0z" clip-path="url(&quot;#7524e&quot;)"/></g><g opacity=".15"><path fill="none" stroke="#f56a2b" stroke-miterlimit="50" stroke-width="4" d="M159.59 387.97v0l67.169 43.326v0l67.169-43.327v0-77.987 0l-67.17-43.326v0l-67.168 43.326v0z" clip-path="url(&quot;#7524f&quot;)"/></g></g></svg>