<svg xmlns="http://www.w3.org/2000/svg" width="42" height="39" viewBox="0 0 42 39"><g><g><g><g><g><path fill="#eb6320" d="M41.997 14.9v3.724H20.32V14.9zm-1.354 1.241H21.675v1.241h18.968z"/></g><g><path fill="#eb6320" d="M21.68 13.653h1.355v-.936l8.129-5.73 8.129 5.73v.936h1.355v-1.547L31.164 5.42l-9.484 6.686z"/></g><g><path fill="#eb6320" d="M38.613 35.33v1.918h2.032v-1.863H42v3.104H0v-3.104h1.355v1.863h2.032V35.33C1.468 35.032 0 33.502 0 31.66c0-1.741.654-3.45 1.841-4.81l.594-.68c.25-.287.584-.487.952-.603V23.59h4.065v3.725h-.793c.95 1.275 1.47 2.796 1.47 4.346 0 1.842-1.468 3.372-3.387 3.669v1.918h4.064V31.04h5.42v6.208h6.097V35.33c-1.92-.298-3.387-1.828-3.387-3.67 0-1.741.653-3.45 1.84-4.81l.595-.68A2.15 2.15 0 0 1 21 25.452c.638 0 1.232.262 1.63.719l.593.68c1.188 1.36 1.842 3.068 1.842 4.81 0 1.842-1.468 3.372-3.388 3.669v1.918h6.775V31.04h5.419v6.208h3.387V35.33c-1.92-.298-3.387-1.828-3.387-3.67 0-1.072.25-2.13.717-3.104h-2.072v-3.724h4.065v1.087a2.184 2.184 0 0 1 1.354-.467c.639 0 1.233.262 1.63.719l.594.68C41.346 28.21 42 29.918 42 31.66c0 1.841-1.468 3.371-3.387 3.669zM4.742 25.567c.322.102.61.272.846.506h.509v-1.241H4.742zm0 5.473v3.016c1.165-.278 2.032-1.241 2.032-2.395 0-1.462-.549-2.894-1.544-4.035l-.594-.68a.754.754 0 0 0-.571-.252.755.755 0 0 0-.572.251l-.594.681c-.995 1.14-1.544 2.573-1.544 4.035 0 1.154.867 2.117 2.032 2.395V31.04zm8.129 1.241h-2.71v4.967h2.71zm8.806-1.241v3.016c1.166-.278 2.033-1.241 2.033-2.395 0-1.462-.549-2.894-1.544-4.035l-.594-.68a.754.754 0 0 0-.572-.252.755.755 0 0 0-.572.251l-.594.681c-.995 1.14-1.544 2.573-1.544 4.035 0 1.154.867 2.117 2.033 2.395V31.04zm10.84 1.241h-2.71v4.967h2.71zm2.709-4.966v-1.242H33.87v1.242zm3.387 3.725v3.016c1.165-.278 2.032-1.241 2.032-2.395 0-1.462-.549-2.894-1.544-4.035l-.594-.68a.754.754 0 0 0-.571-.252.756.756 0 0 0-.572.251l-.594.681c-.995 1.14-1.544 2.573-1.544 4.035 0 1.154.867 2.117 2.032 2.395V31.04z"/></g><g><path fill="#eb6320" d="M23.035 19.87H21.68v4.967h1.355z"/></g><g><path fill="#eb6320" d="M40.645 19.87H39.29v4.967h1.355z"/></g><g><path fill="#eb6320" d="M36.585 23.595H32.52V19.87h4.065zm-1.355-2.483h-1.355v1.241h1.355z"/></g><g><path fill="#eb6320" d="M29.805 23.595H25.74V19.87h4.065zm-1.355-2.483h-1.355v1.241h1.355z"/></g><g><path fill="#eb6320" d="M12.875 12.416H8.81V8.69h4.065zM11.52 9.932h-1.355v1.242h1.355z"/></g><g><path fill="#eb6320" d="M18.295 12.416H14.23V8.69h4.065zM16.94 9.932h-1.355v1.242h1.355z"/></g><g><path fill="#eb6320" d="M7.455 12.416H3.39V8.69h4.065zM6.1 9.932H4.745v1.242H6.1z"/></g><g><path fill="#eb6320" d="M12.875 17.385H8.81V13.66h4.065zm-1.355-2.483h-1.355v1.241h1.355z"/></g><g><path fill="#eb6320" d="M18.295 17.385H14.23V13.66h4.065zm-1.355-2.483h-1.355v1.241h1.355z"/></g><g><path fill="#eb6320" d="M7.455 17.385H3.39V13.66h4.065zM6.1 14.902H4.745v1.241H6.1z"/></g><g><path fill="#eb6320" d="M12.875 22.345H8.81V18.62h4.065zm-1.355-2.483h-1.355v1.241h1.355z"/></g><g><path fill="#eb6320" d="M18.295 22.345H14.23V18.62h4.065zm-1.355-2.483h-1.355v1.241h1.355z"/></g><g><path fill="#eb6320" d="M3.39 18.62h4.065v3.725H3.39zm1.355 2.483H6.1v-1.241H4.745z"/></g><g><path fill="#eb6320" d="M8.81 23.59h4.065v3.726H8.81zm1.355 2.484h1.355v-1.242h-1.355z"/></g><g><path fill="#eb6320" d="M14.23 23.59h4.065v3.726H14.23zm1.355 2.484h1.355v-1.242h-1.355z"/></g><g><path fill="#eb6320" d="M25.74 24.83h4.065v3.724H25.74zm1.355 2.482h1.355v-1.24h-1.355z"/></g><g><path fill="#eb6320" d="M1.355 7.452h18.968v3.103h1.354V6.21H0v20.485h1.355z"/></g><g><path fill="#eb6320" d="M3.385 4.966H2.03V2.483h1.355V0h14.903v2.483h1.355v2.483h-1.355V3.724H3.385zM4.74 2.483h12.193V1.24H4.74z"/></g></g></g></g></g></svg>